<svg width="91" height="15" viewBox="0 0 91 15" fill="none" xmlns="http://www.w3.org/2000/svg">
<path d="M14.6292 4.87084H17.0096V6.30639H17.0972C17.2384 5.7937 17.4721 5.40796 17.7982 5.14916C18.1244 4.89037 18.5114 4.76098 18.9593 4.76098C19.1881 4.76098 19.4218 4.79028 19.6603 4.84887V7.00219C19.5532 6.96313 19.4023 6.9314 19.2076 6.90698C19.0177 6.88256 18.8424 6.87036 18.6818 6.87036C18.3751 6.87036 18.1025 6.93628 17.864 7.06811C17.6254 7.19995 17.4356 7.38794 17.2944 7.6321C17.1581 7.87622 17.09 8.15455 17.09 8.46707V12.8249H14.6292V4.87084ZM23.6221 12.9714C22.8092 12.9714 22.1009 12.8005 21.4972 12.4587C20.8984 12.1169 20.4384 11.636 20.1171 11.0159C19.7958 10.3958 19.6352 9.68042 19.6352 8.8699C19.6352 8.04955 19.7958 7.33178 20.1171 6.71655C20.4384 6.10132 20.8984 5.6228 21.4972 5.28101C22.1009 4.93921 22.8092 4.7683 23.6221 4.7683C24.4351 4.7683 25.1434 4.93921 25.7471 5.28101C26.3507 5.6228 26.8132 6.10132 27.1345 6.71655C27.4558 7.33178 27.6164 8.04955 27.6164 8.8699C27.6164 9.68042 27.4558 10.3958 27.1345 11.0159C26.8132 11.636 26.3507 12.1169 25.7471 12.4587C25.1434 12.8005 24.4351 12.9714 23.6221 12.9714ZM23.6441 11.111C23.9556 11.111 24.2209 11.0183 24.44 10.8328C24.659 10.6423 24.8221 10.3762 24.9293 10.0344C25.0412 9.68777 25.0972 9.29222 25.0972 8.84792C25.0972 8.40842 25.0412 8.01782 24.9293 7.67605C24.8221 7.33423 24.659 7.07055 24.44 6.88501C24.2209 6.69457 23.9556 6.59936 23.6441 6.59936C23.3276 6.59936 23.055 6.69457 22.8263 6.88501C22.6023 7.07055 22.4319 7.33178 22.3151 7.6687C22.1982 8.0056 22.1398 8.39867 22.1398 8.84792C22.1398 9.30197 22.1982 9.69992 22.3151 10.0418C22.4319 10.3787 22.6023 10.6423 22.8263 10.8328C23.055 11.0183 23.3276 11.111 23.6441 11.111ZM28.4457 2.21948H30.9065V6.23315H30.9649C30.9795 6.20386 30.9917 6.177 31.0014 6.15259C31.0112 6.12817 31.0209 6.10132 31.0306 6.07202C31.1621 5.81811 31.3227 5.59595 31.5126 5.40551C31.7025 5.21509 31.9385 5.06128 32.2209 4.94409C32.5032 4.8269 32.8294 4.7683 33.1994 4.7683C33.7836 4.7683 34.3142 4.91723 34.7912 5.21509C35.2731 5.51294 35.6578 5.96948 35.945 6.58471C36.2322 7.19507 36.3758 7.94942 36.3758 8.84792C36.3758 9.7219 36.2347 10.469 35.9522 11.0891C35.6748 11.7044 35.295 12.1682 34.8131 12.4807C34.3361 12.7883 33.7957 12.9421 33.192 12.9421C32.827 12.9421 32.4984 12.8835 32.2063 12.7664C31.9191 12.6443 31.6781 12.4904 31.4834 12.3049C31.2935 12.1145 31.1353 11.8948 31.0087 11.6457L30.9649 11.5432H30.87V12.8249H28.4457V2.21948ZM30.8553 8.84057C30.8553 9.28 30.9138 9.66332 31.0306 9.99047C31.1523 10.3127 31.3251 10.5642 31.5491 10.7449C31.773 10.9206 32.0407 11.0085 32.3523 11.0085C32.6688 11.0085 32.9389 10.9182 33.1629 10.7375C33.3917 10.5569 33.562 10.3054 33.674 9.98312C33.7908 9.65597 33.8493 9.27512 33.8493 8.84057C33.8493 8.40602 33.7908 8.02757 33.674 7.7053C33.562 7.38305 33.3941 7.13647 33.1701 6.96557C32.9462 6.78979 32.6736 6.7019 32.3523 6.7019C32.0359 6.7019 31.7657 6.78735 31.5418 6.95824C31.3227 7.12915 31.1523 7.37573 31.0306 7.69802C30.9138 8.0203 30.8553 8.40115 30.8553 8.84057ZM41.82 9.47777C41.5863 9.48265 41.2699 9.49735 40.8707 9.52172L40.2135 9.5803C39.8971 9.60962 39.6464 9.70727 39.4614 9.87332C39.2813 10.0393 39.1912 10.2493 39.1912 10.5032C39.1912 10.6741 39.235 10.823 39.3227 10.9499C39.4103 11.072 39.532 11.1648 39.6878 11.2283C39.8436 11.2917 40.0212 11.3234 40.2208 11.3234C40.4983 11.3234 40.7515 11.2673 40.9803 11.155C41.2091 11.0378 41.3891 10.8791 41.5206 10.679C41.652 10.4738 41.7178 10.2468 41.7178 9.99782L41.6959 7.3977C41.6959 7.21216 41.6545 7.05347 41.5717 6.92163C41.489 6.7849 41.3648 6.68481 41.1993 6.62134C41.0338 6.55298 40.8391 6.5188 40.6151 6.5188C40.2938 6.5188 40.0309 6.5896 39.8265 6.7312C39.6221 6.86792 39.4979 7.06811 39.4541 7.33178H37.1466C37.1904 6.85327 37.3511 6.41869 37.6285 6.02807C37.9109 5.63745 38.3076 5.32983 38.8188 5.10522C39.3348 4.88061 39.9506 4.7683 40.6662 4.7683C41.3332 4.7683 41.9295 4.87329 42.4553 5.08324C42.9859 5.28832 43.4021 5.59106 43.7039 5.99145C44.0106 6.39185 44.164 6.87036 44.164 7.427V12.8249H41.8419V11.719H41.7835C41.6423 11.9827 41.4622 12.2072 41.2431 12.3928C41.0241 12.5735 40.7685 12.7127 40.4764 12.8103C40.1843 12.908 39.8484 12.9568 39.4687 12.9568C38.9576 12.9568 38.5048 12.8689 38.1105 12.6931C37.721 12.5173 37.4144 12.2537 37.1904 11.9021C36.9665 11.5505 36.8545 11.1209 36.8545 10.613C36.8545 9.78295 37.1247 9.17507 37.6651 8.78927C38.2054 8.39867 38.9137 8.17652 39.79 8.12282C39.9555 8.10812 40.4009 8.08615 41.1263 8.0569L41.8054 8.02757L41.82 9.47777ZM47.4541 7.74197H47.7973L50.0828 4.87084H52.8868L49.5497 8.93582H48.9145L47.4467 10.6936L47.4541 7.74197ZM45.2269 2.21948H47.6877V12.8249H45.2269V2.21948ZM48.0309 9.48512L49.652 7.73462L53.0037 12.8249H50.1559L48.0309 9.48512ZM64.5283 12.8249H62.0674V4.87084H64.4041V6.31372H64.4844C64.6694 5.8352 64.9712 5.45923 65.3899 5.18579C65.8085 4.90747 66.31 4.7683 66.8941 4.7683C67.4491 4.7683 67.9335 4.89282 68.3473 5.14184C68.7611 5.38598 69.0799 5.73266 69.3038 6.18188C69.5327 6.6311 69.6471 7.15356 69.6471 7.74925V12.8249H67.1862V8.22535C67.1862 7.92257 67.1351 7.66622 67.0329 7.4563C66.9355 7.24634 66.7894 7.08276 66.5947 6.96557C66.4 6.84839 66.1639 6.78979 65.8864 6.78979C65.6138 6.78979 65.3753 6.85083 65.1708 6.9729C64.9664 7.09009 64.8081 7.25854 64.6962 7.47826C64.5842 7.69802 64.5283 7.96165 64.5283 8.2693V12.8249ZM73.2219 12.8249H70.761V2.21948H73.2219V12.8249ZM78.0454 12.9714C77.2274 12.9714 76.517 12.8078 75.9128 12.4807C75.3146 12.1535 74.8518 11.6824 74.5258 11.0671C74.2045 10.4519 74.0438 9.7219 74.0438 8.87717C74.0438 8.06177 74.2045 7.34399 74.5258 6.72387C74.8518 6.09887 75.3116 5.61791 75.9061 5.28101C76.4998 4.93921 77.1885 4.7683 77.9721 4.7683C78.7221 4.7683 79.3838 4.92456 79.9588 5.23706C80.5331 5.54956 80.981 6.01098 81.3018 6.62134C81.6233 7.23169 81.7841 7.96412 81.7841 8.8186V9.4558H74.9348V7.99832H79.4915C79.4915 7.72 79.4257 7.47094 79.2941 7.25122C79.1677 7.03149 78.992 6.8606 78.7684 6.73853C78.5494 6.61646 78.2989 6.55541 78.0162 6.55541C77.7239 6.55541 77.4614 6.62134 77.2274 6.75317C76.9941 6.88013 76.8116 7.05835 76.68 7.28784C76.5484 7.51247 76.4781 7.76395 76.4684 8.0422V9.49975C76.4684 9.83665 76.5342 10.1345 76.6651 10.3933C76.7967 10.6472 76.9843 10.8425 77.2274 10.9793C77.4756 11.116 77.7627 11.1843 78.0895 11.1843C78.3086 11.1843 78.5105 11.1526 78.6952 11.0891C78.8806 11.0256 79.0361 10.9402 79.1625 10.8328C79.2941 10.7204 79.3913 10.5886 79.4549 10.4372H81.7549C81.6577 10.9451 81.4461 11.3918 81.1193 11.7776C80.7986 12.1584 80.3724 12.4538 79.8415 12.6638C79.3158 12.8689 78.7169 12.9714 78.0454 12.9714ZM85.0592 12.8249H82.5984V4.87084H84.9351V6.31372H85.0158C85.2005 5.8352 85.5026 5.45923 85.9213 5.18579C86.3401 4.90747 86.841 4.7683 87.4258 4.7683C87.9806 4.7683 88.4651 4.89282 88.8786 5.14184C89.2921 5.38598 89.6114 5.73266 89.835 6.18188C90.0638 6.6311 90.1782 7.15356 90.1782 7.74925V12.8249H87.7174V8.22535C87.7174 7.92257 87.6666 7.66622 87.5641 7.4563C87.4669 7.24634 87.3211 7.08276 87.1259 6.96557C86.9315 6.84839 86.6952 6.78979 86.4178 6.78979C86.1449 6.78979 85.9064 6.85083 85.7022 6.9729C85.4974 7.09009 85.3396 7.25854 85.2274 7.47826C85.1153 7.69802 85.0592 7.96165 85.0592 8.2693V12.8249Z" fill="#FAFAFA"/>
<path d="M12.5321 8.25001C12.5022 8.93003 12.3626 9.57998 12.1134 10.2C11.8741 10.81 11.5202 11.355 11.0516 11.835C10.593 12.315 10.0147 12.69 9.31686 12.96C8.62894 13.23 7.82639 13.365 6.90914 13.365C6.03179 13.365 5.20928 13.24 4.44159 12.99C3.67391 12.73 2.99596 12.35 2.40774 11.85C1.82949 11.35 1.37586 10.735 1.04685 10.005C0.727816 9.27503 0.568298 8.43998 0.568298 7.50001C0.568298 6.56001 0.732801 5.72501 1.06181 4.99501C1.39081 4.26501 1.84942 3.65001 2.43765 3.15001C3.03584 2.65001 3.72376 2.27501 4.50141 2.02501C5.28903 1.76501 6.14644 1.63501 7.07364 1.63501C8.30988 1.63501 9.37668 1.82501 10.274 2.20501C11.1713 2.58501 11.8941 3.10501 12.4424 3.76501C12.9907 4.42501 13.3447 5.19001 13.5042 6.06001H10.3787C10.279 5.68001 10.0745 5.35501 9.7655 5.08501C9.46641 4.80501 9.08753 4.59501 8.62894 4.45501C8.1803 4.30501 7.66682 4.23001 7.08859 4.23001C6.39071 4.23001 5.78753 4.35501 5.27906 4.60501C4.7706 4.84501 4.37679 5.21001 4.09763 5.70001C3.81848 6.18001 3.6789 6.78001 3.6789 7.50001C3.6789 8.22998 3.82845 8.84499 4.12754 9.34501C4.42664 9.84504 4.85036 10.22 5.3987 10.47C5.95702 10.72 6.61004 10.845 7.35778 10.845C8.08556 10.845 8.72861 10.745 9.28695 10.545C9.84529 10.335 10.2889 10.03 10.6179 9.63001C10.9569 9.23003 11.1513 8.75003 11.2012 8.19001L12.5321 8.25001ZM7.65688 9.49501V7.30501H13.6089V13.125H11.4105L10.9768 8.67001L11.5601 9.49501H7.65688Z" fill="#20B231"/>
<path d="M53.604 10.2719L56.3766 9.92093L57.4399 10.2854L58.5032 9.92093L61.2893 10.2719V13.1339L57.4534 12.6479L53.604 13.1339V10.2719ZM57.4399 10.9199C56.6324 10.7939 55.9235 10.5419 55.3134 10.1639C54.7032 9.79493 54.2276 9.32243 53.8867 8.74643C53.5547 8.17943 53.3887 7.53143 53.3887 6.80243C53.3887 6.04643 53.5547 5.38043 53.8867 4.80443C54.2276 4.23743 54.7032 3.79193 55.3134 3.46793C55.9325 3.14393 56.6413 2.98193 57.4399 2.98193C58.2565 2.98193 58.9698 3.14393 59.58 3.46793C60.1901 3.79193 60.6657 4.23743 61.0067 4.80443C61.3476 5.38043 61.5181 6.04643 61.5181 6.80243C61.5181 7.53143 61.3476 8.17943 61.0067 8.74643C60.6747 9.32243 60.2036 9.79943 59.5934 10.1774C58.9922 10.5554 58.2744 10.8029 57.4399 10.9199ZM57.4399 5.77643C57.0631 5.77643 56.7266 5.85293 56.4305 6.00593C56.1344 6.16793 55.9011 6.38843 55.7306 6.66743C55.5691 6.94643 55.4883 7.26593 55.4883 7.62593C55.4883 8.00393 55.5691 8.35943 55.7306 8.69243C55.9011 9.02543 56.1344 9.31793 56.4305 9.56993C56.7266 9.82193 57.0631 10.0109 57.4399 10.1369C57.8258 10.0109 58.1667 9.82193 58.4628 9.56993C58.7589 9.31793 58.9922 9.02543 59.1627 8.69243C59.3332 8.35943 59.4185 8.00393 59.4185 7.62593C59.4185 7.26593 59.3332 6.94643 59.1627 6.66743C58.9922 6.38843 58.7589 6.16793 58.4628 6.00593C58.1667 5.85293 57.8258 5.77643 57.4399 5.77643Z" fill="#20B231"/>
</svg>
